<svg width="27" height="27" viewBox="0 0 27 27" fill="none" xmlns="http://www.w3.org/2000/svg">
<g clip-path="url(#clip0_5_65)">
<path d="M23.625 7.59375H9.28125C9.05747 7.59375 8.84286 7.50486 8.68463 7.34662C8.5264 7.18839 8.4375 6.97378 8.4375 6.75C8.4375 6.52622 8.5264 6.31161 8.68463 6.15338C8.84286 5.99515 9.05747 5.90625 9.28125 5.90625H23.625C23.8488 5.90625 24.0634 5.99515 24.2216 6.15338C24.3799 6.31161 24.4688 6.52622 24.4688 6.75C24.4688 6.97378 24.3799 7.18839 24.2216 7.34662C24.0634 7.50486 23.8488 7.59375 23.625 7.59375Z" fill="white"/>
<path d="M5.90625 7.59375H3.375C3.15122 7.59375 2.93661 7.50486 2.77838 7.34662C2.62014 7.18839 2.53125 6.97378 2.53125 6.75C2.53125 6.52622 2.62014 6.31161 2.77838 6.15338C2.93661 5.99515 3.15122 5.90625 3.375 5.90625H5.90625C6.13003 5.90625 6.34464 5.99515 6.50287 6.15338C6.66111 6.31161 6.75 6.52622 6.75 6.75C6.75 6.97378 6.66111 7.18839 6.50287 7.34662C6.34464 7.50486 6.13003 7.59375 5.90625 7.59375Z" fill="white"/>
<path d="M17.7188 14.3438H3.375C3.15122 14.3438 2.93661 14.2549 2.77838 14.0966C2.62014 13.9384 2.53125 13.7238 2.53125 13.5C2.53125 13.2762 2.62014 13.0616 2.77838 12.9034C2.93661 12.7451 3.15122 12.6562 3.375 12.6562H17.7188C17.9425 12.6562 18.1571 12.7451 18.3154 12.9034C18.4736 13.0616 18.5625 13.2762 18.5625 13.5C18.5625 13.7238 18.4736 13.9384 18.3154 14.0966C18.1571 14.2549 17.9425 14.3438 17.7188 14.3438Z" fill="white"/>
<path d="M9.28125 21.0938H3.375C3.15122 21.0938 2.93661 21.0049 2.77838 20.8466C2.62014 20.6884 2.53125 20.4738 2.53125 20.25C2.53125 20.0262 2.62014 19.8116 2.77838 19.6534C2.93661 19.4951 3.15122 19.4062 3.375 19.4062H9.28125C9.50503 19.4062 9.71964 19.4951 9.87787 19.6534C10.0361 19.8116 10.125 20.0262 10.125 20.25C10.125 20.4738 10.0361 20.6884 9.87787 20.8466C9.71964 21.0049 9.50503 21.0938 9.28125 21.0938Z" fill="white"/>
<path d="M7.59375 9.28125C7.09312 9.28125 6.60373 9.1328 6.18746 8.85466C5.7712 8.57652 5.44677 8.18119 5.25518 7.71867C5.0636 7.25614 5.01347 6.74719 5.11114 6.25618C5.20881 5.76516 5.44989 5.31414 5.80389 4.96014C6.15789 4.60614 6.60891 4.36506 7.09993 4.26739C7.59094 4.16972 8.09989 4.21985 8.56242 4.41143C9.02494 4.60302 9.42027 4.92745 9.69841 5.34371C9.97655 5.75998 10.125 6.24937 10.125 6.75C10.125 7.42133 9.85832 8.06516 9.38362 8.53987C8.90891 9.01457 8.26508 9.28125 7.59375 9.28125ZM7.59375 5.90625C7.42687 5.90625 7.26374 5.95574 7.12499 6.04845C6.98623 6.14116 6.87809 6.27294 6.81423 6.42711C6.75037 6.58129 6.73366 6.75094 6.76621 6.91461C6.79877 7.07828 6.87913 7.22862 6.99713 7.34662C7.11513 7.46462 7.26547 7.54498 7.42914 7.57754C7.59282 7.6101 7.76247 7.59339 7.91664 7.52952C8.07082 7.46566 8.20259 7.35752 8.2953 7.21876C8.38802 7.08001 8.4375 6.91688 8.4375 6.75C8.4375 6.52622 8.34861 6.31161 8.19037 6.15338C8.03214 5.99515 7.81753 5.90625 7.59375 5.90625Z" fill="white"/>
<path d="M19.4063 16.0313C18.9056 16.0313 18.4162 15.8828 18 15.6047C17.5837 15.3265 17.2593 14.9312 17.0677 14.4687C16.8761 14.0061 16.826 13.4972 16.9236 13.0062C17.0213 12.5152 17.2624 12.0641 17.6164 11.7101C17.9704 11.3561 18.4214 11.1151 18.9124 11.0174C19.4034 10.9197 19.9124 10.9698 20.3749 11.1614C20.8374 11.353 21.2328 11.6775 21.5109 12.0937C21.789 12.51 21.9375 12.9994 21.9375 13.5C21.9375 14.1713 21.6708 14.8152 21.1961 15.2899C20.7214 15.7646 20.0776 16.0313 19.4063 16.0313ZM19.4063 12.6563C19.2394 12.6563 19.0762 12.7057 18.9375 12.7984C18.7987 12.8912 18.6906 13.0229 18.6267 13.1771C18.5629 13.3313 18.5462 13.5009 18.5787 13.6646C18.6113 13.8283 18.6916 13.9786 18.8096 14.0966C18.9276 14.2146 19.078 14.295 19.2416 14.3275C19.4053 14.3601 19.575 14.3434 19.7291 14.2795C19.8833 14.2157 20.0151 14.1075 20.1078 13.9688C20.2005 13.83 20.25 13.6669 20.25 13.5C20.25 13.2762 20.1611 13.0616 20.0029 12.9034C19.8446 12.7451 19.63 12.6563 19.4063 12.6563Z" fill="white"/>
<path d="M10.9688 22.7813C10.4681 22.7813 9.97873 22.6328 9.56246 22.3547C9.1462 22.0765 8.82177 21.6812 8.63018 21.2187C8.4386 20.7561 8.38847 20.2472 8.48614 19.7562C8.58381 19.2652 8.82489 18.8141 9.17889 18.4601C9.53289 18.1061 9.98391 17.8651 10.4749 17.7674C10.9659 17.6697 11.4749 17.7198 11.9374 17.9114C12.3999 18.103 12.7953 18.4275 13.0734 18.8437C13.3515 19.26 13.5 19.7494 13.5 20.25C13.5 20.9213 13.2333 21.5652 12.7586 22.0399C12.2839 22.5146 11.6401 22.7813 10.9688 22.7813ZM10.9688 19.4063C10.8019 19.4063 10.6387 19.4557 10.5 19.5484C10.3612 19.6412 10.2531 19.7729 10.1892 19.9271C10.1254 20.0813 10.1087 20.2509 10.1412 20.4146C10.1738 20.5783 10.2541 20.7286 10.3721 20.8466C10.4901 20.9646 10.6405 21.045 10.8041 21.0775C10.9678 21.1101 11.1375 21.0934 11.2916 21.0295C11.4458 20.9657 11.5776 20.8575 11.6703 20.7188C11.763 20.58 11.8125 20.4169 11.8125 20.25C11.8125 20.0262 11.7236 19.8116 11.5654 19.6534C11.4071 19.4951 11.1925 19.4063 10.9688 19.4063Z" fill="white"/>
<path d="M23.625 14.3438H21.0938C20.87 14.3438 20.6554 14.2549 20.4971 14.0966C20.3389 13.9384 20.25 13.7238 20.25 13.5C20.25 13.2762 20.3389 13.0616 20.4971 12.9034C20.6554 12.7451 20.87 12.6562 21.0938 12.6562H23.625C23.8488 12.6562 24.0634 12.7451 24.2216 12.9034C24.3799 13.0616 24.4688 13.2762 24.4688 13.5C24.4688 13.7238 24.3799 13.9384 24.2216 14.0966C24.0634 14.2549 23.8488 14.3438 23.625 14.3438Z" fill="white"/>
<path d="M23.625 21.0938H12.6562C12.4325 21.0938 12.2179 21.0049 12.0596 20.8466C11.9014 20.6884 11.8125 20.4738 11.8125 20.25C11.8125 20.0262 11.9014 19.8116 12.0596 19.6534C12.2179 19.4951 12.4325 19.4062 12.6562 19.4062H23.625C23.8488 19.4062 24.0634 19.4951 24.2216 19.6534C24.3799 19.8116 24.4688 20.0262 24.4688 20.25C24.4688 20.4738 24.3799 20.6884 24.2216 20.8466C24.0634 21.0049 23.8488 21.0938 23.625 21.0938Z" fill="white"/>
</g>
<defs>
<clipPath id="clip0_5_65">
<rect width="27" height="27" fill="white"/>
</clipPath>
</defs>
</svg>
